PathFileType	4	(X/Y/Z)	OpenSim_Sub03_CSStiffKnee_Accel.trc
DataRate	CameraRate	NumFrames	NumMarkers	Units	OrigDataRate	OrigDataStartFrame	OrigNumFrames
100	100	20	8	m	100	2728	3637
Frame#	Time	torso_imu_offset_imu	pelvis_imu_offset_imu	tibia_r_imu_offset_imu	femur_r_imu_offset_imu	tibia_l_imu_offset_imu	femur_l_imu_offset_imu	toes_r_imu_offset_imu	toes_l_imu_offset_imu
				X1	Y1	Z1	X2	Y2	Z2	X3	Y3	Z3	X4	Y4	Z4	X5	Y5	Z5	X6	Y6	Z6	X7	Y7	Z7	X8		Y8	Z8	

2728	27.27000000	8.31144500	2.66460600	4.41786900	9.91662400	-0.85278200	2.74262600	6.77187200	6.95563400	0.48637000	9.26422000	0.03433000	2.52361800	9.50848600	-1.30292200	-0.43356300	9.25087500	-0.21502000	-1.70946300	6.83199900	1.31215600	10.66446000	6.54226800	1.25140700	9.94456100
2729	27.28000000	8.46035700	2.70614000	4.45244800	9.85554200	-0.87885300	2.65589800	6.82593400	6.64688600	0.73017600	9.22145800	0.76453100	2.49458100	9.65101000	-1.42226800	-0.50413500	9.41019500	-0.18972900	-1.65997000	7.25948000	0.70146900	10.15876300	5.91882900	1.38218300	10.37428300
2730	27.29000000	8.67995200	2.62157400	4.55286000	9.47097500	-1.06365000	2.74888300	6.97886900	6.20259500	1.05266800	9.02362800	1.29074700	2.56282800	9.61204500	-1.31069300	-0.39382700	9.51545700	-0.40953800	-1.48619700	7.63651100	-0.05384200	9.55168700	5.81020200	1.64387700	10.56127700
2731	27.30000000	8.95637400	2.54964400	4.69606100	9.24996500	-1.32778100	2.68481100	7.06883500	5.39282800	1.38468000	8.94613400	1.46770600	2.62195500	9.80707900	-0.79745400	-0.37605200	9.78089300	-0.60960000	-1.38332900	8.16022900	-1.13251200	8.98556600	6.13176000	1.50295100	10.40493300
2732	27.31000000	9.05832000	2.42126900	4.75486800	8.99939600	-1.53416600	2.72347300	7.25759800	4.67902000	1.69772100	8.40301300	1.23848200	2.71161000	10.17995700	-0.67831300	-0.18212600	9.83117300	-0.73423900	-1.33902000	8.75989600	-2.20324700	8.56304700	6.17576400	1.26147400	10.29355800
2733	27.32000000	9.14998600	2.57871200	4.94909000	9.11035300	-1.29860000	2.69003600	7.66896900	4.05538800	1.71302000	8.25494700	0.88235400	2.72095000	10.08049600	-0.61473300	0.07089400	9.73021300	-0.55504800	-1.46220400	9.11170000	-3.05020800	8.17801200	6.10062900	1.04149100	10.41552000
2734	27.33000000	9.08180600	2.41001800	4.87478900	9.01874200	-1.34396400	2.69549100	8.16043400	3.32929300	1.85429600	8.21044000	0.28042400	2.67797100	10.11021000	-0.79785900	0.08763800	9.88166500	-0.34356500	-1.56205000	9.50434500	-3.90785100	7.83352500	5.72611800	1.07157800	10.62967500
2735	27.34000000	9.03684700	2.29910700	4.91606000	9.09112200	-1.26749000	2.56796700	8.61803100	2.83419200	1.74716500	8.04124400	-0.56217500	2.83757700	10.17174500	-0.94491500	-0.00171900	9.88646900	-0.31538000	-1.76432600	10.18263500	-4.39845500	7.63068900	6.18441500	1.12694700	10.37901000
2736	27.35000000	9.00552100	2.33569600	4.85946200	9.20702800	-1.26564400	2.39012200	9.18510600	2.44419400	1.77912700	7.98477200	-1.40114600	2.97837300	10.29648600	-1.12193000	-0.43852600	9.94876200	-0.20889700	-1.68070000	10.97027900	-4.44375100	7.55219200	6.23470200	0.98169900	10.31547500
2737	27.36000000	9.03805500	2.34334100	4.89016000	9.28307300	-1.18456100	2.26098000	9.37695500	2.77651400	1.66980100	8.03752500	-2.30570600	3.26482500	10.14302500	-0.91873300	-0.39353700	9.89837100	-0.15150900	-1.59193800	11.77969800	-4.42011800	7.45374900	6.20986200	1.40552400	10.35544700
2738	27.37000000	9.08060500	2.32885900	4.91363300	9.27780900	-1.27350200	2.17582600	9.82922500	3.46863800	1.41398500	8.12709800	-3.12400900	3.48586200	10.02115700	-0.66315700	-0.49186700	9.82243900	0.18925100	-1.55321500	12.14155800	-4.13909600	7.11340800	5.82259000	1.46211000	10.54197500
2739	27.38000000	9.18523700	2.34424700	4.92882800	9.43407000	-1.10399200	2.06428800	10.00497700	3.64802600	1.11968100	8.15256000	-3.72825700	3.57208500	10.17919300	-0.39488300	-0.61091700	9.80309700	0.45658800	-1.71363000	12.68889000	-3.33491700	6.88753700	6.19349200	1.54636900	10.37609600
2740	27.39000000	9.20780400	2.43121600	4.87115900	9.31582900	-1.31431300	1.99829900	10.27122000	3.53566100	0.80762600	8.13819400	-4.09184500	3.58801700	10.09558000	-0.30481100	-0.55459200	9.70902800	0.74453800	-1.72492200	13.41036800	-2.38862200	6.67683700	6.19055100	1.56529000	10.35745000
2741	27.40000000	9.24878600	2.36918000	4.86770700	9.34861200	-1.27422100	1.85771900	10.70083300	3.54162800	0.19773600	7.88952300	-4.27600600	3.45656700	10.03328000	-0.10608300	-0.15635400	9.61731600	1.04958800	-1.75684300	13.84588900	-1.15079500	6.31426300	6.48303500	1.38857400	10.09223600
2742	27.41000000	9.26940700	2.29033000	4.81245500	9.37913600	-1.44738600	1.77741700	11.19159100	3.65597600	-0.25356700	7.87679300	-4.29369400	3.10430400	10.09437800	0.08242100	-0.24456200	9.55626200	1.22247400	-1.58770100	14.06159100	0.30353600	5.85198000	5.98573000	1.15336900	10.33772400
2743	27.42000000	9.21935100	2.23724600	4.76452500	9.26575000	-1.67868000	1.71438500	11.88292300	4.00377500	-0.93172500	7.98428400	-4.38899400	2.47078500	10.11089300	0.26937400	-0.01094200	9.60183900	1.10486300	-1.75822900	14.81387600	2.07992800	5.65368800	6.13926200	1.21916400	10.36176700
2744	27.43000000	9.17864000	2.20992000	4.74009900	9.33993700	-1.70478900	1.62496400	11.29860800	4.23685800	-1.39550600	8.06744800	-4.81616900	2.13347000	10.10011200	0.13585400	-0.23232400	9.57058300	1.09502300	-1.92950700	15.59051100	3.44419800	5.30225600	6.27843500	1.15940500	10.28981700
2745	27.44000000	9.19632300	2.17943100	4.71989500	9.23419200	-1.80763100	1.61248000	10.27567700	4.41063700	-0.84955200	7.96092300	-5.03239700	1.82850400	10.31566000	-0.10339800	-0.13324300	9.57890400	1.02196200	-1.99767500	16.89481500	4.38063700	4.65729700	6.41765900	0.96374000	10.09258600
2746	27.45000000	9.24030300	2.14573600	4.74867100	9.13568100	-1.82339000	1.52939700	9.69912100	4.78781900	-0.58953200	7.77953800	-5.06233100	1.79380200	10.31737900	-0.54779000	-0.40183300	9.65337100	1.06909200	-2.22344400	17.09085300	5.32217700	3.34322700	6.22817800	1.12463800	10.43425300
2747	27.46000000	9.30087800	2.02961900	4.64441700	9.12293800	-1.76869900	1.38714200	8.95213500	5.03372200	-0.43908700	7.94351300	-5.02235500	1.99408300	10.17833000	-0.71077400	-0.21166200	9.53839500	0.76354300	-2.02749400	16.47089400	5.92421700	1.31978000	6.26177800	1.03957900	10.31916600
